# xmcd CD database file
#
# Track frame offsets:
#	182
#	16765
#	36790
#	54730
#	69725
#	87310
#	105265
#	122740
#	139555
#	157995
#	174870
#	190492
#	207777
#	222662
#
# Disc length: 3221 seconds
#
# Revision: 1
# Processed by: cddbd v1.5.2PL0 Copyright (c) Steve Scherf et al.
# Submitted via: Feurio! 1.68 - http://www.feurio.com
#
DISCID=bd0c930e
DTITLE=Patrica Kaas - Piano Bar
DYEAR=2006
DGENRE=Rock
TTITLE0=My man (Mon Homme)
TTITLE1=If you Go away (Ne me quitte pas)
TTITLE2=What now my love (Et Maintenant)
TTITLE3=Un Homme et une Femme
TTITLE4=The Summer knows (Un E´tE´42)
TTITLE5=I wish you love ( Que reste´t´il de nos Amours?)
TTITLE6=Yesterday when i was young (Hier encore)
TTITLE7=Les moulins de mon Coeur (The Windmills of your Mind)
TTITLE8=Autumn leaves (Les feuilles mortes)
TTITLE9=Where do i begin (Love Story)
TTITLE10=Syracuse
TTITLE11=La mer
TTITLE12=And now ... Ladis and Gentlemen (Ge´ne´rique)
TTITLE13=If you go away (Remix)
EXTD=
EXTT0=
EXTT1=
EXTT2=
EXTT3=
EXTT4=
EXTT5=
EXTT6=
EXTT7=
EXTT8=
EXTT9=
EXTT10=
EXTT11=
EXTT12=
EXTT13=
PLAYORDER=
